# xmcd
#
# Track frame offsets:
# 150
# 11062
# 24147
# 35872
# 46912
# 59402
# 71537
# 81975
# 92720
# 104110
# 114267
# 125337
#
# Disc length: 1807 seconds
#
#
# Revision: 0
# Processed by: cddbd v1.5.2PL0 Copyright (c) Steve Scherf et al.
# Submitted via: FreeRIP 2.951 
#
DISCID=9e070d0c
DTITLE=Los Panchos - Los Panchos interpretan a Ernesto Lecuona
DYEAR=1991
DGENRE=Blues
TTITLE0=María la O...
TTITLE1=Siboney
TTITLE2=Malagueña
TTITLE3=Noche Azul
TTITLE4=Es un golfo
TTITLE5=Como presiento
TTITLE6=Canto carabalí
TTITLE7=La comparsa
TTITLE8=Aquella tarde
TTITLE9=Siempre en mi corazón
TTITLE10=Sin nombre
TTITLE11=Juventud
EXTD=
EXTT0=
EXTT1=
EXTT2=
EXTT3=
EXTT4=
EXTT5=
EXTT6=
EXTT7=
EXTT8=
EXTT9=
EXTT10=
EXTT11=
PLAYORDER=
